<?xml version="1.0" encoding="UTF-8"?>
<svg width="1920" height="1080" font-family="'Bitstream Vera Sans', 'Liberation Sans', Arial, sans-serif" font-size="72px" text-anchor="middle" version="1.1" viewBox="-300 -300 3840 2160" xmlns="http://www.w3.org/2000/svg" xmlns:cc="http://creativecommons.org/ns#" xmlns:dc="http://purl.org/dc/elements/1.1/" xmlns:rdf="http://www.w3.org/1999/02/22-rdf-syntax-ns#">
 <metadata>
  <rdf:RDF>
   <cc:Work rdf:about="">
    <dc:format>image/svg+xml</dc:format>
    <dc:type rdf:resource="http://purl.org/dc/dcmitype/StillImage"/>
    <dc:title/>
   </cc:Work>
  </rdf:RDF>
 </metadata>
 <rect x="-300" y="-300" width="3840" height="2160" fill="#fff" stroke-width="20"/>
 <ellipse cx="1680" cy="760" rx="898.4" ry="898.4" fill="#fff" stroke="#aaa" stroke-width="20"/>
 <g fill="#444" stroke-width="3.2086" aria-label="NO IMAGEAVAILABLE">
  <path d="m1120 734.33v-165.37h22.448l86.858 129.84v-129.84h20.981v165.37h-22.448l-86.858-129.95v129.95z"/>
  <path d="m1280.4 653.79q0-41.173 22.109-64.41 22.109-23.35 57.078-23.35 22.899 0 41.286 10.942 18.387 10.942 27.975 30.57 9.701 19.515 9.701 44.331 0 25.155-10.152 45.008-10.152 19.853-28.765 30.118-18.612 10.152-40.158 10.152-23.35 0-41.737-11.28-18.387-11.28-27.862-30.795-9.4754-19.515-9.4754-41.286zm22.561 0.33841q0 29.893 16.018 47.152 16.131 17.146 40.383 17.146 24.704 0 40.609-17.372 16.018-17.372 16.018-49.295 0-20.192-6.881-35.194-6.7681-15.116-19.966-23.35-13.085-8.3474-29.442-8.3474-23.237 0-40.045 16.018-16.695 15.905-16.695 53.243z"/>
  <path d="m1534.7 734.33v-165.37h21.884v165.37z"/>
  <path d="m1594.4 734.33v-165.37h32.938l39.143 117.09q5.4145 16.356 7.8962 24.478 2.82-9.0242 8.7986-26.509l39.594-115.06h29.442v165.37h-21.094v-138.41l-48.054 138.41h-19.74l-47.828-140.78v140.78z"/>
  <path d="m1769.4 734.33 63.508-165.37h23.576l67.682 165.37h-24.929l-19.289-50.084h-69.148l-18.161 50.084zm47.716-67.907h56.063l-17.259-45.798q-7.8962-20.868-11.732-34.292-3.1585 15.905-8.9114 31.585z"/>
  <path d="m2019 669.47v-19.402l70.05-0.1128v61.365q-16.131 12.86-33.277 19.402-17.146 6.4298-35.194 6.4298-24.365 0-44.331-10.378-19.853-10.491-30.006-30.231-10.152-19.74-10.152-44.106 0-24.14 10.039-45.008 10.152-20.981 29.103-31.134 18.951-10.152 43.655-10.152 17.936 0 32.374 5.8658 14.552 5.7529 22.786 16.131 8.2346 10.378 12.521 27.073l-19.74 5.4145q-3.7225-12.634-9.2499-19.853-5.5273-7.2194-15.792-11.506-10.265-4.3993-22.786-4.3993-15.003 0-25.945 4.6249-10.942 4.5121-17.71 11.957-6.6553 7.445-10.378 16.356-6.317 15.341-6.317 33.277 0 22.109 7.5578 36.999 7.6706 14.89 22.222 22.109 14.552 7.2194 30.908 7.2194 14.213 0 27.75-5.4145 13.536-5.5273 20.53-11.731v-30.795z"/>
  <path d="m2121.8 734.33v-165.37h119.57v19.515h-97.687v50.648h91.483v19.402h-91.483v56.289h101.52v19.515z"/>
  <path d="m1074 1016.7 63.508-165.37h23.576l67.682 165.37h-24.93l-19.289-50.084h-69.148l-18.161 50.084zm47.716-67.907h56.063l-17.259-45.798q-7.8962-20.869-11.732-34.292-3.1585 15.905-8.9114 31.585z"/>
  <path d="m1276.3 1016.7-64.072-165.37h23.688l42.978 120.13q5.1889 14.439 8.6858 27.073 3.8353-13.536 8.9114-27.073l44.67-120.13h22.335l-64.749 165.37z"/>
  <path d="m1347.9 1016.7 63.508-165.37h23.576l67.682 165.37h-24.929l-19.289-50.084h-69.148l-18.161 50.084zm47.716-67.907h56.063l-17.259-45.798q-7.8962-20.869-11.731-34.292-3.1585 15.905-8.9115 31.585z"/>
  <path d="m1523.8 1016.7v-165.37h21.884v165.37z"/>
  <path d="m1583.4 1016.7v-165.37h21.884v145.85h81.444v19.515z"/>
  <path d="m1694.6 1016.7 63.508-165.37h23.576l67.682 165.37h-24.929l-19.289-50.084h-69.148l-18.161 50.084zm47.716-67.907h56.063l-17.259-45.798q-7.8962-20.869-11.732-34.292-3.1584 15.905-8.9114 31.585z"/>
  <path d="m1866 1016.7v-165.37h62.042q18.951 0 30.344 5.0761 11.506 4.9633 17.936 15.454 6.5425 10.378 6.5425 21.771 0 10.603-5.7529 19.966t-17.372 15.116q15.003 4.3993 23.012 15.003 8.1218 10.603 8.1218 25.042 0 11.619-4.9633 21.658-4.8505 9.9266-12.07 15.341-7.2194 5.4146-18.161 8.2346-10.829 2.7073-26.622 2.7073zm21.884-95.882h35.758q14.552 0 20.868-1.9176 8.3474-2.4817 12.521-8.2346 4.2865-5.7529 4.2865-14.439 0-8.2346-3.9481-14.439-3.9481-6.317-11.28-8.573-7.3321-2.3689-25.155-2.3689h-33.051zm0 76.367h41.173q10.604 0 14.89-0.78962 7.5578-1.3536 12.634-4.5121 5.0761-3.1585 8.3474-9.137 3.2713-6.0914 3.2713-13.988 0-9.2498-4.7377-16.018-4.7377-6.881-13.198-9.5882-8.3474-2.8201-24.14-2.8201h-38.24z"/>
  <path d="m2020 1016.7v-165.37h21.884v145.85h81.444v19.515z"/>
  <path d="m2149.9 1016.7v-165.37h119.57v19.515h-97.687v50.648h91.483v19.402h-91.483v56.289h101.52v19.515z"/>
 </g>
</svg>
